<svg width="16" height="16" viewBox="0 0 16 16" fill="none" xmlns="http://www.w3.org/2000/svg">
<g clip-path="url(#clip0_368_38576)">
<path d="M7 1L7 12.86L2.64 9.23C2.5389 9.14595 2.4222 9.08265 2.2966 9.0437C2.171 9.00474 2.039 8.99091 1.9081 9.00298C1.6436 9.02736 1.3997 9.15578 1.23 9.36C1.0603 9.56422 0.9786 9.8275 1.003 10.0919C1.0274 10.3563 1.1558 10.6003 1.36 10.77L7.36 15.77C7.40772 15.8036 7.45786 15.8337 7.51 15.86C7.56 15.86 7.59 15.91 7.64 15.93C7.75466 15.9753 7.87671 15.9991 8 16C8.12329 15.9991 8.24534 15.9753 8.36 15.93C8.41 15.93 8.44 15.88 8.49 15.86C8.54214 15.8337 8.59227 15.8036 8.64 15.77L14.64 10.77C14.7529 10.676 14.8437 10.5582 14.9059 10.4252C14.9681 10.2921 15.0002 10.1469 15 10C15.0005 9.76635 14.9191 9.53991 14.77 9.36C14.686 9.25874 14.5829 9.17504 14.4666 9.11369C14.3503 9.05234 14.2229 9.01454 14.092 9.00246C13.961 8.99039 13.8289 9.00427 13.7033 9.04331C13.5777 9.08236 13.461 9.1458 13.36 9.23L9 12.86L9 1C9 0.734784 8.89464 0.48043 8.7071 0.292893C8.51957 0.105357 8.26521 -2.94387e-07 8 -3.0598e-07C7.73478 -3.17573e-07 7.48043 0.105357 7.29289 0.292893C7.10536 0.48043 7 0.734784 7 1Z" fill="#162B40"/>
</g>
<defs>
<clipPath id="clip0_368_38576">
<rect width="16" height="16" fill="white"/>
</clipPath>
</defs>
</svg>
