<svg fill="none" xmlns="http://www.w3.org/2000/svg" viewBox="0 0 200 34"><path d="M33.894 25.816v-.062a.038.038 0 0 1 .023-.036c1.264-.53 1.264-2.12 1.264-6.454V18.08c0-3.89 0-4.582-1.267-5.324a.045.045 0 0 1-.014-.016.046.046 0 0 1-.006-.02v-.077c0-.008.003-.017.008-.023a.036.036 0 0 1 .021-.012 21.657 21.657 0 0 0 7.662-4.124.042.042 0 0 1 .065.033v4.993a.038.038 0 1 0 .077 0c.887-2.775 2.07-4.636 3.973-4.636 1.993 0 2.603 1.68 2.603 3.328 0 1.586-.834 3.254-2.538 3.254-1.414 0-2.603-2.005-3.408-2.005-.32 0-.512.254-.701.606a.04.04 0 0 0 0 .018v5.165c0 4.334 0 5.916 1.26 6.455a.041.041 0 0 1 .027.035v.062a.042.042 0 0 1-.042.042h-8.975a.04.04 0 0 1-.028-.013.04.04 0 0 1-.008-.013.04.04 0 0 1-.002-.016" fill="#162B40"/><path d="M71.732 14.2c0 5.43 3.55 7.158 6.955 7.158 1.686 0 3.026-.568 3.772-1.52a.038.038 0 0 1 .053 0l.038.026a.042.042 0 0 1 .018.048c-1.127 3.156-3.124 5.949-7.77 5.949-5.08 0-8.648-3.198-8.648-8.597 0-5.398 3.955-8.794 8.422-8.794 3.793 0 6.88 1.68 6.88 4.816 0 1.585-1.094 2.905-3.087 2.905-2.095 0-3.343-1.539-3.053-4.062.192-1.68.763-2.81-.52-2.81-1.353 0-3.06 1.627-3.06 4.89" fill="#162B40"/><path d="M90.353.015a21.66 21.66 0 0 1-7.65 4.109.042.042 0 0 0-.03.038v.077a.045.045 0 0 0 .022.036c1.266.74 1.266 1.429 1.266 5.324v9.668c0 4.333 0 5.916-1.26 6.454a.041.041 0 0 0-.027.036v.062a.041.041 0 0 0 .041.041h8.955a.039.039 0 0 0 .028-.012.038.038 0 0 0 .01-.029v-.062a.038.038 0 0 0-.024-.036c-1.263-.526-1.263-2.12-1.263-6.454V.039A.038.038 0 0 0 90.4.005a.038.038 0 0 0-.04.004" fill="#162B40"/><path d="M103.171 9.297h-12.04a.038.038 0 0 0-.038.038v.426a.041.041 0 0 0 .033.039c2.174.266 4.378 1.45 4.378 3.345 0 1.672-1.63 3.228-4.97 4.009a.041.041 0 0 0-.031.041c0 .006.002.012.004.018l5.106 8.629c.004.006.008.01.014.014a.041.041 0 0 0 .019.006h7.173c.008.001.015 0 .021-.004a.046.046 0 0 0 .016-.014.048.048 0 0 0 .005-.02.037.037 0 0 0-.006-.02l-6.99-11.78a.035.035 0 0 1 0-.047c1.775-1.669 5.407-3.805 7.306-4.174a.038.038 0 0 0 .023-.016.042.042 0 0 0 .01-.026v-.42a.04.04 0 0 0-.003-.015.035.035 0 0 0-.009-.013.042.042 0 0 0-.014-.008.036.036 0 0 0-.015-.002" fill="#162B40"/><path d="M54.522 14.246c0-3.239.81-4.617 1.848-4.893 1.6-.425 2.722.888 2.722 2.799 0 1.775-1.278 2.574-3.914 2.574h-.615a.041.041 0 0 1-.041-.041v-.439Zm10.575 5.573a.039.039 0 0 0-.053 0c-.743.953-2.071 1.52-3.772 1.52-3.177 0-6.292-1.014-6.694-5.744 0-.005 0-.01.002-.015a.038.038 0 0 1 .02-.023.037.037 0 0 1 .016-.003h10.108a.038.038 0 0 0 .03-.014.038.038 0 0 0 .009-.031c-.329-3.085-2.397-7.067-7.606-7.067-4.467 0-8.422 3.751-8.422 8.792 0 5.399 3.568 8.6 8.647 8.6 4.647 0 6.644-2.796 7.771-5.95a.041.041 0 0 0-.015-.047l-.041-.018Z" fill="#162B40"/><path d="M189.366 14.246c0-3.239.811-4.617 1.849-4.893 1.6-.425 2.722.888 2.722 2.799 0 1.775-1.278 2.574-3.914 2.574h-.615a.044.044 0 0 1-.03-.013.045.045 0 0 1-.012-.029v-.438Zm10.576 5.573a.041.041 0 0 0-.027-.01.041.041 0 0 0-.027.01c-.742.953-2.07 1.52-3.771 1.52-3.177 0-6.292-1.014-6.695-5.744a.08.08 0 0 1 .002-.015.039.039 0 0 1 .009-.014.037.037 0 0 1 .012-.009.042.042 0 0 1 .016-.003h10.108a.038.038 0 0 0 .016-.004.033.033 0 0 0 .013-.01.03.03 0 0 0 .008-.014.03.03 0 0 0 .001-.017c-.328-3.085-2.396-7.067-7.605-7.067-4.467 0-8.422 3.751-8.422 8.792 0 5.399 3.568 8.6 8.647 8.6 4.647 0 6.644-2.796 7.771-5.95a.042.042 0 0 0 0-.026.038.038 0 0 0-.018-.02l-.038-.019Z" fill="#162B40"/><path d="m24.15 6.508 4.343 11.536a.038.038 0 0 0 .035.024.038.038 0 0 0 .036-.024l2.792-6.212c2.367-5.304-2.156-8.209-5.951-8.209-2.346 0-2.089.678-1.255 2.879v.006Zm-7.839 11.906 2.663-5.887a.06.06 0 0 0 0-.032l-2.858-6.674c-.642-1.52-1.606-2.198-3.567-2.198-2.35 0-2.35.678-1.417 2.879l5.111 11.91a.04.04 0 0 0 .037.022.041.041 0 0 0 .037-.023l-.006.003ZM39.11 3.103v.417a.039.039 0 0 1-.036.038c-1.86.193-4.319 2.843-6.555 7.822l-7.1 15.855a.038.038 0 0 1-.035.024h-.068a.04.04 0 0 1-.035-.024l-5.822-13.53a.038.038 0 0 0-.071 0l-6.16 13.54a.041.041 0 0 1-.038.023h-.11a.038.038 0 0 1-.035-.024L3.055 5.827C2.382 4.307 1.64 3.79 0 3.564V3.07h39.065a.038.038 0 0 1 .037.026c.002.005.002.01.002.016" fill="#162B40"/><path d="M125.133 22.064a.04.04 0 0 0 .017-.014.05.05 0 0 0 .007-.021v-.14l.094-7.394a.033.033 0 0 0-.004-.02.042.042 0 0 0-.013-.014.04.04 0 0 0-.039-.002c-2.144 1.165-3.091 3.026-3.091 5.138 0 2.251 1.621 3.16 3.029 2.47v-.003Zm8.221 2.328a.046.046 0 0 1-.004.02.048.048 0 0 1-.014.016c-1.349.87-3.334 1.831-5.188 1.831-2.127 0-2.917-.98-2.988-3.742a.041.041 0 0 0-.014-.02.04.04 0 0 0-.023-.008.035.035 0 0 0-.023.008.036.036 0 0 0-.014.02c-.734 2.18-2.207 3.754-4.911 3.754-2.251 0-4.212-1.456-4.212-4.236 0-2.618 1.929-4.041 5.561-5.884 3.254-1.648 3.763-1.479 3.763-3.458 0-1.81-.997-3.363-2.443-3.363-2.071 0-.548 1.553-.548 3.46 0 2.367-1.671 3.524-3.407 3.524-1.737 0-2.861-1.068-2.861-2.618 0-2.663 4.692-4.819 9.354-4.819 3.473 0 6.235 1.618 6.141 5.851l-.13 6.402c-.033 2.218-.222 2.996 1.925 3.165a.04.04 0 0 1 .026.012c.006.007.01.017.01.026v.06Z" fill="#162B40"/><path d="M133.762 25.795v-.06c0-.008.002-.015.006-.022a.038.038 0 0 1 .018-.016c1.277-.53 1.277-2.12 1.277-6.47v-1.183c0-3.893 0-4.585-1.266-5.324a.038.038 0 0 1-.014-.016.037.037 0 0 1-.006-.02v-.077c0-.008.003-.017.008-.024a.046.046 0 0 1 .021-.014 21.696 21.696 0 0 0 7.653-4.109.038.038 0 0 1 .02-.01.036.036 0 0 1 .039.018.042.042 0 0 1 .006.022v4.659a.042.042 0 0 0 .01.023.043.043 0 0 0 .048.011.044.044 0 0 0 .019-.017c1.328-3.218 3.55-4.307 5.484-4.307 2.769.015 4.248 1.79 4.23 6.523v3.846c0 4.336 0 5.916 1.261 6.454a.04.04 0 0 1 .017.016.037.037 0 0 1 .006.023v.062c.001.005 0 .01-.002.015a.027.027 0 0 1-.008.014.032.032 0 0 1-.013.01.039.039 0 0 1-.015.002h-8.954a.04.04 0 0 1-.029-.012.058.058 0 0 1-.008-.014c-.002-.004-.002-.01-.002-.015v-.048c0-.008.002-.015.006-.022a.043.043 0 0 1 .018-.016c1.26-.526 1.26-2.118 1.26-6.455v-.872c0-3.686-.16-5.236-1.994-5.236a2.939 2.939 0 0 0-1.328.31.039.039 0 0 0-.016.015.049.049 0 0 0-.005.02v5.749c0 4.336 0 5.916 1.26 6.454a.044.044 0 0 1 .019.016.04.04 0 0 1 .008.023v.062a.041.041 0 0 1-.041.041H133.8a.039.039 0 0 1-.028-.012.036.036 0 0 1-.008-.014.028.028 0 0 1-.002-.015" fill="#162B40"/><path d="M164.594 18.69c0-1-.257-2.424-.772-4.3-.965-3.549-1.864-5.235-2.893-5.235-.642 0-1.157.453-1.157 1.84 0 1.003.257 2.426.769 4.301.965 3.55 1.867 5.236 2.896 5.236.642 0 1.157-.453 1.157-1.843Zm-2.636 14.494c3.76 0 5.689-1.097 5.689-3.038 0-1.583-1.157-2.426-3.31-2.006l-3.376.68a10.754 10.754 0 0 1-2.987.196 1.884 1.884 0 0 0-.696 1.48c0 1.712 1.897 2.682 4.695 2.682l-.015.006Zm-3.088-12.868a.048.048 0 0 0-.03 0c-1.499.74-1.819 1.287-1.819 1.775 0 .592.482.807 1.254.807a16.448 16.448 0 0 0 3.053-.485l3.088-.645c5.109-1.067 8.132.453 8.132 4.074 0 4.718-5.786 7.662-10.897 7.662-4.597 0-7.49-1.036-7.49-2.781 0-.98 1.541-1.633 3.085-1.734a.038.038 0 0 0 .038-.038.038.038 0 0 0-.038-.038c-2.272-.42-3.733-1.805-3.733-3.846 0-2.169 2.127-3.929 4.996-4.813a.041.041 0 0 0 .026-.039.038.038 0 0 0-.007-.023.042.042 0 0 0-.019-.015c-2.452-.887-4.322-2.745-4.322-5.325-.009-3.76 3.949-5.978 7.996-5.978 1.692 0 4.05.512 5.783 1.775a.038.038 0 0 0 .028.012.04.04 0 0 0 .016-.003.037.037 0 0 0 .012-.01c1.092-1.981 2.527-3.289 3.87-3.289 1.638 0 2.215 1.163 2.215 2.293a2.19 2.19 0 0 1-1.31 2.078c-.266.117-.553.18-.843.185-1.574 0-2.861-1.905-3.665-1.26a.333.333 0 0 0-.104.1.038.038 0 0 0-.011.027c0 .01.004.02.011.027a5.009 5.009 0 0 1 1.994 4.05c0 3.75-3.955 5.98-8.005 5.98a11.24 11.24 0 0 1-3.328-.514" fill="#162B40"/><path d="M116.477 9.913V9.34a.04.04 0 0 0-.003-.015.035.035 0 0 0-.009-.013.042.042 0 0 0-.029-.01h-5.834a.041.041 0 0 1-.041-.041V4.562a.04.04 0 0 0-.003-.015.057.057 0 0 0-.01-.013.03.03 0 0 0-.013-.008.039.039 0 0 0-.016-.002h-.923a.037.037 0 0 0-.021.004.036.036 0 0 0-.014.016c-1.802 3.204-5.192 4.754-8.907 4.757h-.018c-.005 0-.01 0-.015.002a.042.042 0 0 0-.014.008.035.035 0 0 0-.009.013.04.04 0 0 0-.003.015v.574a.041.041 0 0 0 .041.041h3.426a.038.038 0 0 1 .038.04v11.35c0 3.393 2.219 5.043 4.982 5.043 3.135 0 4.836-1.408 5.804-3.62a.04.04 0 0 0 .001-.03.04.04 0 0 0-.019-.02.04.04 0 0 0-.05 0 2.277 2.277 0 0 1-2.006 1.07c-1.577 0-2.251-1.097-2.251-3.458V9.975a.04.04 0 0 1 .003-.015.035.035 0 0 1 .009-.013.042.042 0 0 1 .014-.008.036.036 0 0 1 .015-.002h5.825a.041.041 0 0 0 .041-.041" fill="#162B40"/><path d="M174.111 25.854v-.118c1.284-.515 1.284-2.097 1.284-6.452V9.638c0-3.905 0-4.583-1.284-5.325v-.13A21.654 21.654 0 0 0 181.841 0v19.264c0 4.354 0 5.937 1.284 6.451v.13l-9.014.01Z" fill="#162B40"/></svg>