<svg width="244" height="127" viewBox="0 0 244 127" fill="none" xmlns="http://www.w3.org/2000/svg">
<path d="M157.504 0H0V49.8778H157.504V0Z" fill="#EFC75C"/>
<path d="M82.9945 63.6651V63.5293C82.9932 63.5116 82.9975 63.494 83.0068 63.4789C83.0161 63.4638 83.0299 63.452 83.0462 63.4452C85.7817 62.3071 85.7817 58.8732 85.7817 49.5159V46.9292C85.7817 38.5225 85.7817 37.0416 83.0334 35.4443C83.0204 35.4378 83.0098 35.4275 83.0028 35.4148C82.9959 35.4021 82.993 35.3876 82.9945 35.3732V35.205C82.994 35.1874 82.9994 35.1701 83.01 35.156C83.0206 35.1419 83.0356 35.1318 83.0527 35.1274C89.1317 33.3101 94.7819 30.2859 99.6658 26.2357C99.6785 26.2257 99.6939 26.2196 99.71 26.2181C99.7261 26.2166 99.7423 26.2198 99.7566 26.2274C99.771 26.2349 99.7829 26.2464 99.7908 26.2605C99.7988 26.2746 99.8025 26.2907 99.8016 26.3068V37.0804C99.8016 37.1027 99.8104 37.1241 99.8262 37.1398C99.8419 37.1556 99.8633 37.1645 99.8856 37.1645C99.9079 37.1645 99.9293 37.1556 99.9451 37.1398C99.9608 37.1241 99.9697 37.1027 99.9697 37.0804C101.91 31.0922 104.458 27.0764 108.59 27.0764C112.916 27.0764 114.242 30.7042 114.242 34.2609C114.242 37.6753 112.431 41.3031 108.732 41.3031C105.66 41.3031 103.08 36.9834 101.341 36.9834C100.649 36.9834 100.228 37.5266 99.8145 38.2767C99.8117 38.2917 99.8117 38.307 99.8145 38.322V49.5159C99.8145 58.8732 99.8145 62.3071 102.556 63.4452C102.573 63.452 102.587 63.4638 102.596 63.4789C102.605 63.494 102.609 63.5116 102.608 63.5293V63.6651C102.608 63.6874 102.599 63.7088 102.583 63.7245C102.568 63.7403 102.546 63.7492 102.524 63.7492H83.1238C83.1016 63.7492 83.0802 63.7403 83.0644 63.7245C83.0486 63.7088 83.0398 63.6874 83.0398 63.6651" fill="white"/>
<path d="M165.108 39.8872C165.108 51.6049 172.804 55.3362 180.201 55.3362C183.862 55.3362 186.765 54.1011 188.382 52.0511C188.398 52.0361 188.418 52.0277 188.44 52.0277C188.462 52.0277 188.483 52.0361 188.498 52.0511L188.582 52.1093C188.592 52.1235 188.598 52.1405 188.598 52.1578C188.598 52.1752 188.592 52.1921 188.582 52.2063C186.138 59.0158 181.812 65.0492 171.73 65.0492C160.704 65.0492 152.977 58.1428 152.977 46.4962C152.977 34.8496 161.577 27.5293 171.271 27.5293C179.503 27.5293 186.196 31.1571 186.196 37.9213C186.196 41.3422 183.829 44.1876 179.503 44.1876C174.976 44.1876 172.247 40.8637 172.875 35.4252C173.295 31.7973 174.537 29.3594 171.743 29.3594C168.814 29.3594 165.108 32.8708 165.108 39.9131" fill="white"/>
<path d="M83.5317 102.323C83.547 102.316 83.5601 102.306 83.5693 102.292C83.5785 102.278 83.5834 102.262 83.5834 102.245V101.954L83.7903 85.9878C83.7916 85.9722 83.7886 85.9565 83.7814 85.9425C83.7743 85.9285 83.7633 85.9168 83.7499 85.9088C83.7364 85.9007 83.7209 85.8965 83.7052 85.8968C83.6896 85.897 83.6742 85.9017 83.661 85.9102C79.0115 88.4258 76.9551 92.4351 76.9551 97.0006C76.9551 101.857 80.4729 103.817 83.5317 102.323ZM101.367 107.347C101.366 107.361 101.363 107.375 101.356 107.388C101.349 107.4 101.34 107.41 101.328 107.419C98.3987 109.294 94.0984 111.37 90.0696 111.37C85.4523 111.37 83.7451 109.255 83.6029 103.299C83.6029 103.277 83.594 103.256 83.5782 103.24C83.5625 103.224 83.5411 103.215 83.5188 103.215C83.4965 103.215 83.4751 103.224 83.4594 103.24C83.4436 103.256 83.4347 103.277 83.4347 103.299C81.8439 108.001 78.6493 111.396 72.784 111.396C67.9016 111.396 63.6465 108.259 63.6465 102.258C63.6465 96.6062 67.8305 93.5409 75.7134 89.5639C82.7557 86.0072 83.8744 86.3305 83.8744 82.0948C83.8744 78.2148 81.7081 74.8456 78.5717 74.8456C74.1097 74.8456 77.3883 78.1889 77.3883 82.3082C77.3883 87.3976 73.7605 89.9131 69.9904 89.9131C66.2203 89.9131 63.7823 87.6109 63.7823 84.2612C63.7823 78.5381 73.9674 73.8691 84.0814 73.8691C91.6151 73.8691 97.6162 77.3547 97.4028 86.4922L97.1247 100.305C97.0536 105.09 96.6398 106.772 101.302 107.134C101.323 107.136 101.343 107.145 101.358 107.161C101.372 107.176 101.38 107.197 101.38 107.218L101.367 107.347Z" fill="white"/>
<path d="M102.25 110.374V110.238C102.25 110.222 102.255 110.205 102.264 110.191C102.273 110.178 102.286 110.167 102.302 110.161C105.044 109.022 105.044 105.589 105.044 96.2312V93.6445C105.044 85.2378 105.044 83.7569 102.295 82.1596C102.282 82.1523 102.272 82.142 102.264 82.1296C102.256 82.1172 102.251 82.1031 102.25 82.0885V81.9203C102.251 81.9013 102.257 81.8829 102.269 81.8678C102.28 81.8527 102.296 81.8417 102.315 81.8363C108.392 80.0315 114.04 77.0157 118.921 72.9704C118.935 72.9611 118.95 72.9555 118.966 72.9543C118.983 72.9532 118.999 72.9564 119.014 72.9637C119.028 72.971 119.04 72.982 119.049 72.9957C119.058 73.0094 119.063 73.0253 119.063 73.0415V83.0908C119.063 83.1102 119.07 83.1291 119.083 83.1441C119.095 83.1592 119.112 83.1694 119.131 83.1733C119.15 83.1771 119.17 83.1741 119.187 83.165C119.204 83.1559 119.218 83.1411 119.225 83.1231C122.109 76.1843 126.953 73.8369 131.13 73.8369C137.196 73.8369 140.404 77.6717 140.339 87.9279V96.2247C140.339 105.582 140.339 109.016 143.074 110.154C143.09 110.16 143.103 110.171 143.112 110.185C143.121 110.199 143.126 110.215 143.126 110.232V110.367C143.127 110.379 143.126 110.391 143.122 110.402C143.118 110.413 143.112 110.423 143.104 110.431C143.096 110.44 143.086 110.446 143.076 110.451C143.065 110.456 143.054 110.458 143.042 110.458H123.642C123.63 110.458 123.619 110.456 123.608 110.451C123.598 110.446 123.588 110.44 123.58 110.431C123.572 110.423 123.566 110.413 123.562 110.402C123.558 110.391 123.557 110.379 123.558 110.367V110.232C123.558 110.215 123.563 110.199 123.572 110.185C123.581 110.171 123.594 110.16 123.61 110.154C126.345 109.016 126.345 105.582 126.345 96.2247V94.3429C126.345 86.3888 126.002 83.0455 122.025 83.0455C121.024 83.03 120.034 83.2516 119.135 83.6922C119.122 83.6987 119.111 83.709 119.104 83.7217C119.097 83.7344 119.094 83.749 119.096 83.7634V96.1989C119.096 105.556 119.096 108.99 121.831 110.128C121.847 110.135 121.86 110.145 121.869 110.159C121.878 110.173 121.883 110.189 121.883 110.206V110.342C121.884 110.353 121.882 110.365 121.879 110.376C121.875 110.387 121.869 110.397 121.861 110.405C121.853 110.414 121.843 110.421 121.833 110.425C121.822 110.43 121.81 110.432 121.799 110.432H102.399C102.387 110.432 102.376 110.43 102.365 110.425C102.354 110.421 102.345 110.414 102.337 110.405C102.329 110.397 102.323 110.387 102.319 110.376C102.315 110.365 102.314 110.353 102.315 110.342" fill="white"/>
<path d="M169.157 95.0476C169.157 92.8812 168.594 89.816 167.482 85.7678C165.387 78.0983 163.434 74.4705 161.203 74.4705C159.806 74.4705 158.687 75.4469 158.687 78.4475C158.687 80.6074 159.25 83.6791 160.362 87.7208C162.457 95.3968 164.41 99.0246 166.641 99.0246C168.038 99.0246 169.157 98.0481 169.157 95.0476ZM163.434 126.295C171.595 126.295 175.779 123.928 175.779 119.738C175.779 116.323 173.27 114.506 168.594 115.418L161.274 116.879C159.148 117.318 156.972 117.46 154.807 117.3C154.786 117.293 154.764 117.293 154.743 117.3C154.269 117.684 153.887 118.17 153.626 118.722C153.366 119.274 153.232 119.877 153.236 120.488C153.236 124.187 157.355 126.308 163.421 126.308L163.434 126.295ZM156.689 98.559C156.679 98.5544 156.668 98.552 156.657 98.552C156.646 98.552 156.635 98.5544 156.624 98.559C153.391 100.15 152.68 101.333 152.68 102.374C152.68 103.635 153.727 104.12 155.402 104.12C157.637 103.979 159.854 103.628 162.024 103.073L168.724 101.682C179.814 99.3803 186.371 102.659 186.371 110.471C186.371 120.656 173.813 127 162.723 127C152.751 127 146.472 124.769 146.472 120.999C146.472 118.89 149.815 117.481 153.171 117.267C153.19 117.262 153.207 117.251 153.219 117.235C153.231 117.219 153.238 117.2 153.238 117.18C153.238 117.16 153.231 117.141 153.219 117.125C153.207 117.109 153.19 117.098 153.171 117.093C148.237 116.187 145.068 113.213 145.068 108.796C145.068 104.114 149.686 100.318 155.913 98.4038C155.931 98.3988 155.946 98.3882 155.957 98.3736C155.968 98.359 155.974 98.3412 155.974 98.323C155.974 98.3047 155.968 98.287 155.957 98.2724C155.946 98.2578 155.931 98.2472 155.913 98.2421C150.591 96.3021 146.536 92.3186 146.536 86.7508C146.536 78.6609 155.111 73.8173 163.906 73.8173C167.573 73.8173 172.694 74.9167 176.451 77.6974C176.459 77.7058 176.469 77.7125 176.479 77.7171C176.49 77.7217 176.501 77.7241 176.513 77.7241C176.524 77.7241 176.536 77.7217 176.546 77.7171C176.557 77.7125 176.566 77.7058 176.574 77.6974C178.941 73.4164 182.058 70.584 184.981 70.584C188.538 70.584 189.792 73.0931 189.792 75.5375C189.809 76.1654 189.702 76.7906 189.476 77.3768C189.25 77.9629 188.91 78.4985 188.476 78.9525C188.042 79.4065 187.522 79.77 186.947 80.0218C186.371 80.2737 185.751 80.409 185.123 80.4198C181.702 80.4198 178.915 76.3006 177.169 77.6974C177.079 77.7511 177.002 77.8239 176.943 77.9108C176.929 77.9281 176.921 77.9498 176.921 77.9722C176.921 77.9946 176.929 78.0163 176.943 78.0336C178.3 79.0459 179.399 80.364 180.151 81.881C180.902 83.3979 181.286 85.0708 181.269 86.7637C181.269 94.86 172.694 99.6971 163.906 99.6971C161.457 99.6895 159.022 99.3169 156.683 98.5914" fill="white"/>
<path d="M205.513 7.98701C200.631 12.0316 194.983 15.0493 188.907 16.8593C188.888 16.8624 188.872 16.8719 188.86 16.8862C188.848 16.9004 188.842 16.9184 188.842 16.9369V17.1051C188.842 17.12 188.846 17.1347 188.854 17.1473C188.862 17.1599 188.874 17.17 188.887 17.1762C191.629 18.7735 191.629 20.2673 191.629 28.6611V96.2319C191.629 105.589 191.629 109.023 188.894 110.161C188.878 110.168 188.865 110.178 188.856 110.192C188.847 110.206 188.842 110.222 188.842 110.239V110.375C188.841 110.386 188.843 110.398 188.846 110.409C188.85 110.42 188.856 110.43 188.864 110.438C188.872 110.447 188.882 110.454 188.892 110.458C188.903 110.463 188.915 110.465 188.926 110.465H208.326C208.338 110.465 208.349 110.463 208.36 110.458C208.371 110.454 208.38 110.447 208.388 110.438C208.396 110.43 208.402 110.42 208.406 110.409C208.41 110.398 208.411 110.386 208.41 110.375V110.239C208.41 110.222 208.405 110.206 208.396 110.192C208.387 110.178 208.374 110.168 208.359 110.161C205.623 109.023 205.623 105.589 205.623 96.2319V8.05813C205.623 8.04186 205.618 8.02605 205.609 8.01235C205.6 7.99865 205.588 7.98754 205.573 7.98026C205.559 7.97298 205.542 7.96976 205.526 7.97094C205.51 7.97212 205.494 7.97769 205.481 7.98701" fill="white"/>
<path d="M233.325 28.0137H207.199C207.188 28.0136 207.176 28.016 207.166 28.0206C207.155 28.0252 207.146 28.032 207.138 28.0406C207.13 28.0491 207.124 28.0591 207.12 28.07C207.116 28.081 207.115 28.0926 207.115 28.1042V29.0031C207.115 29.0243 207.123 29.0448 207.138 29.0604C207.152 29.076 207.172 29.0855 207.193 29.0871C211.907 29.6627 216.686 32.2171 216.686 36.3105C216.686 39.9189 213.149 43.2751 205.906 44.9565C205.893 44.9598 205.881 44.9661 205.87 44.9749C205.86 44.9837 205.851 44.9947 205.846 45.0071C205.84 45.0195 205.838 45.0331 205.838 45.0467C205.838 45.0604 205.842 45.0737 205.848 45.0858L216.938 63.7035C216.946 63.7163 216.956 63.7271 216.968 63.7349C216.981 63.7428 216.995 63.7476 217.01 63.7488H232.575C232.591 63.7501 232.606 63.747 232.62 63.7398C232.634 63.7326 232.646 63.7217 232.654 63.7083C232.662 63.6948 232.666 63.6794 232.666 63.6637C232.666 63.648 232.661 63.6326 232.653 63.6194L217.488 38.2052C217.477 38.1901 217.472 38.172 217.472 38.1535C217.472 38.135 217.477 38.1169 217.488 38.1017C221.323 34.4998 229.225 29.8955 233.344 29.0936C233.364 29.0894 233.381 29.0788 233.394 29.0636C233.407 29.0484 233.415 29.0294 233.416 29.0095V28.1042C233.416 28.0802 233.406 28.0572 233.389 28.0402C233.372 28.0232 233.349 28.0137 233.325 28.0137Z" fill="white"/>
<path d="M220.82 86.376C220.82 79.392 222.578 76.4173 224.829 75.8223C228.301 74.904 230.739 77.7235 230.739 81.8623C230.739 85.7035 227.965 87.4107 222.242 87.4107H220.904C220.881 87.4107 220.86 87.4018 220.844 87.3861C220.828 87.3703 220.82 87.3489 220.82 87.3266V86.376ZM243.763 98.3977C243.756 98.3904 243.748 98.3847 243.738 98.3808C243.729 98.3769 243.719 98.3748 243.708 98.3748C243.698 98.3748 243.688 98.3769 243.679 98.3808C243.669 98.3847 243.661 98.3904 243.654 98.3977C242.037 100.454 239.127 101.689 235.467 101.689C228.573 101.689 221.815 99.4905 220.942 89.2925C220.94 89.2804 220.941 89.2681 220.945 89.2564C220.948 89.2446 220.954 89.2337 220.962 89.2245C220.97 89.2153 220.98 89.2079 220.991 89.2029C221.002 89.1979 221.014 89.1953 221.026 89.1955H242.955C242.967 89.1955 242.978 89.1932 242.989 89.1885C243 89.1839 243.009 89.1772 243.017 89.1687C243.025 89.1602 243.031 89.1501 243.035 89.1391C243.039 89.1282 243.04 89.1165 243.039 89.105C242.328 82.4507 237.866 73.8564 226.543 73.8564C216.842 73.8564 208.268 81.9463 208.268 92.8298C208.268 104.47 216.028 111.383 227.021 111.383C237.103 111.383 241.435 105.349 243.88 98.5399C243.891 98.5262 243.897 98.509 243.897 98.4914C243.897 98.4738 243.891 98.4567 243.88 98.4429L243.763 98.3977Z" fill="white"/>
<path d="M127.763 40.0094C127.763 33.0254 129.522 30.0507 131.779 29.4557C135.251 28.5375 137.683 31.3634 137.683 35.4957C137.683 39.3369 134.909 41.0441 129.192 41.0441H127.853C127.842 41.045 127.83 41.0435 127.819 41.0397C127.808 41.0359 127.798 41.0298 127.79 41.0219C127.781 41.014 127.774 41.0044 127.77 40.9938C127.765 40.9831 127.763 40.9717 127.763 40.9601V40.0094ZM150.713 52.0311C150.698 52.0161 150.677 52.0077 150.655 52.0077C150.633 52.0077 150.613 52.0161 150.597 52.0311C148.98 54.081 146.07 55.3162 142.416 55.3162C135.523 55.3162 128.759 53.124 127.886 42.9195C127.884 42.9074 127.885 42.8951 127.888 42.8833C127.891 42.8716 127.897 42.8607 127.905 42.8515C127.913 42.8422 127.923 42.8349 127.934 42.8299C127.945 42.8249 127.958 42.8223 127.97 42.8225H149.898C149.922 42.8225 149.945 42.8129 149.962 42.796C149.979 42.779 149.989 42.756 149.989 42.7319C149.271 36.0777 144.816 27.4834 133.486 27.4834C123.786 27.4834 115.211 35.5733 115.211 46.4568C115.211 58.0969 122.971 65.0098 133.964 65.0098C144.053 65.0098 148.379 58.9763 150.823 52.1669C150.833 52.1527 150.839 52.1358 150.839 52.1184C150.839 52.101 150.833 52.0841 150.823 52.0699L150.713 52.0311Z" fill="white"/>
<path d="M61.8599 21.9936L71.282 46.9293C71.2883 46.9446 71.2991 46.9577 71.3129 46.9669C71.3267 46.9761 71.343 46.9811 71.3596 46.9811C71.3762 46.9811 71.3924 46.9761 71.4062 46.9669C71.42 46.9577 71.4308 46.9446 71.4372 46.9293L77.4965 33.5109C82.6699 22.0712 72.8146 15.7985 64.563 15.7985C59.4672 15.7985 60.0363 17.2665 61.8406 22.0066L61.8599 21.9936ZM44.8266 47.7118L50.5949 35.0112C50.6013 35.0016 50.6047 34.9903 50.6047 34.9788C50.6047 34.9673 50.6013 34.956 50.5949 34.9465L44.3997 20.5451C43.0029 17.2665 40.9077 15.7985 36.6397 15.7985C31.5439 15.7985 31.5439 17.2665 33.568 22.0066L44.6584 47.7118C44.6648 47.7271 44.6756 47.7402 44.6895 47.7494C44.7033 47.7586 44.7194 47.7635 44.736 47.7635C44.7526 47.7635 44.7689 47.7586 44.7827 47.7494C44.7965 47.7402 44.8072 47.7271 44.8136 47.7118H44.8266ZM94.2776 14.6798V15.5787C94.2778 15.6006 94.2701 15.6218 94.2558 15.6385C94.2415 15.6551 94.2217 15.666 94.2 15.6692C90.1648 16.083 84.8232 21.7996 79.9732 32.5473L64.576 66.7563C64.5696 66.7716 64.5588 66.7847 64.545 66.7939C64.5312 66.8031 64.515 66.808 64.4984 66.808H64.3302C64.3134 66.809 64.2968 66.8044 64.2828 66.7951C64.2688 66.7858 64.2582 66.7721 64.2526 66.7563L51.649 37.5396C51.6426 37.5243 51.6318 37.5112 51.618 37.502C51.6042 37.4928 51.588 37.4879 51.5714 37.4879C51.5548 37.4879 51.5386 37.4928 51.5247 37.502C51.5109 37.5112 51.5002 37.5243 51.4938 37.5396L38.1271 66.7628C38.1207 66.7781 38.1099 66.7912 38.0961 66.8004C38.0823 66.8096 38.0661 66.8145 38.0495 66.8145H37.8102C37.7936 66.8145 37.7773 66.8096 37.7635 66.8004C37.7497 66.7912 37.739 66.7781 37.7326 66.7628L16.0561 20.5516C14.5882 17.2729 12.9844 16.1542 9.42773 15.6627V14.5957H94.1935C94.2158 14.5957 94.2373 14.6046 94.253 14.6203C94.2688 14.6361 94.2776 14.6575 94.2776 14.6798Z" fill="white"/>
<path d="M64.7444 77.1225V75.8809C64.7444 75.8699 64.7422 75.859 64.738 75.8488C64.7338 75.8386 64.7276 75.8293 64.7198 75.8215C64.712 75.8137 64.7027 75.8075 64.6925 75.8033C64.6823 75.799 64.6714 75.7969 64.6603 75.7969H51.9984C51.9869 75.7978 51.9753 75.7962 51.9643 75.7924C51.9534 75.7886 51.9433 75.7826 51.9348 75.7747C51.9263 75.7668 51.9195 75.7572 51.9149 75.7466C51.9103 75.7359 51.9079 75.7244 51.908 75.7128V64.5577C51.908 64.5354 51.8991 64.514 51.8833 64.4983C51.8676 64.4825 51.8462 64.4736 51.8239 64.4736H49.8128C49.7978 64.4735 49.7831 64.4777 49.7704 64.4858C49.7578 64.4938 49.7478 64.5053 49.7416 64.5189C47.804 67.9394 44.9944 70.7851 41.599 72.7663C38.2036 74.7474 34.3437 75.7931 30.4126 75.7969H30.3737C30.3622 75.796 30.3505 75.7975 30.3396 75.8013C30.3286 75.8051 30.3185 75.8112 30.31 75.8191C30.3015 75.827 30.2948 75.8366 30.2902 75.8472C30.2855 75.8578 30.2832 75.8693 30.2832 75.8809V77.1225C30.2832 77.1342 30.2855 77.1456 30.2902 77.1563C30.2948 77.1669 30.3015 77.1765 30.31 77.1844C30.3185 77.1923 30.3286 77.1983 30.3396 77.2022C30.3505 77.206 30.3622 77.2075 30.3737 77.2066H37.8105C37.8328 77.2066 37.8542 77.2155 37.8699 77.2312C37.8857 77.247 37.8946 77.2684 37.8946 77.2907V100.765C37.8946 108.092 42.7058 111.648 48.7069 111.648C55.5099 111.648 59.2024 108.609 61.2976 103.843C61.303 103.833 61.3063 103.823 61.3072 103.812C61.3082 103.801 61.3068 103.79 61.3031 103.779C61.2994 103.769 61.2935 103.759 61.2859 103.751C61.2783 103.743 61.2691 103.737 61.2588 103.733C61.243 103.721 61.2238 103.715 61.2039 103.715C61.184 103.715 61.1647 103.721 61.1489 103.733C60.6893 104.466 60.0454 105.064 59.2816 105.469C58.5177 105.875 57.6609 106.072 56.7968 106.042C53.3823 106.042 51.9144 103.668 51.9144 98.5791V77.2389C51.9144 77.2273 51.9168 77.2158 51.9214 77.2052C51.926 77.1945 51.9328 77.185 51.9413 77.1771C51.9498 77.1692 51.9598 77.1632 51.9708 77.1593C51.9818 77.1555 51.9933 77.154 52.0049 77.1549H64.6668C64.6891 77.1549 64.7105 77.146 64.7262 77.1302C64.742 77.1145 64.7509 77.0931 64.7509 77.0708" fill="white"/>
</svg>
