<svg width="36" height="30" fill="none" xmlns="http://www.w3.org/2000/svg"><path d="M8.826 30c-1.703 0-3.097-.357-4.18-1.071a8.905 8.905 0 0 1-2.672-2.738 14.529 14.529 0 0 1-1.626-4.167C.116 20.516 0 19.286 0 18.334c0-3.89.968-7.421 2.903-10.596C4.84 4.563 7.858 1.984 11.961 0l1.046 2.143c-2.4 1.032-4.49 2.659-6.272 4.88-1.703 2.223-2.554 4.485-2.554 6.787 0 .952.116 1.785.348 2.5 1.239-1.032 2.671-1.548 4.297-1.548 2.013 0 3.755.675 5.226 2.024 1.47 1.349 2.206 3.214 2.206 5.595 0 2.222-.735 4.048-2.206 5.476C12.58 29.286 10.839 30 8.826 30Zm19.742 0c-1.704 0-3.097-.357-4.18-1.071a8.905 8.905 0 0 1-2.672-2.738 14.53 14.53 0 0 1-1.626-4.167c-.232-1.508-.348-2.738-.348-3.69 0-3.89.968-7.421 2.903-10.596C24.581 4.563 27.6 1.984 31.703 0l1.045 2.143c-2.4 1.032-4.49 2.659-6.27 4.88-1.704 2.223-2.555 4.485-2.555 6.787 0 .952.116 1.785.348 2.5 1.239-1.032 2.67-1.548 4.297-1.548 2.013 0 3.755.675 5.226 2.024C35.264 18.135 36 20 36 22.38c0 2.222-.736 4.048-2.206 5.476C32.323 29.286 30.58 30 28.568 30Z" fill="#DC6094"/></svg>